<mxfile host="65bd71144e">
    <diagram id="115kOUgr2P82bWYSrLta" name="Page-1">
        <mxGraphModel dx="955" dy="1723" grid="0" gridSize="10" guides="1" tooltips="1" connect="1" arrows="1" fold="1" page="1" pageScale="1" pageWidth="827" pageHeight="1169" math="0" shadow="0">
            <root>
                <mxCell id="0"/>
                <mxCell id="1" parent="0"/>
                <mxCell id="13" value="&lt;font style=&quot;font-size: 16px&quot;&gt;ARRAY UNICO&lt;/font&gt;&lt;br&gt;- CRIADO EM SINGLETON" style="text;html=1;strokeColor=default;fillColor=none;align=left;verticalAlign=top;whiteSpace=wrap;rounded=0;fontStyle=0" vertex="1" parent="1">
                    <mxGeometry x="68" y="-490" width="725" height="118" as="geometry"/>
                </mxCell>
                <mxCell id="9" value="&lt;font style=&quot;font-size: 16px&quot;&gt;OUTRO - ARRAY &lt;/font&gt;&lt;br&gt;- CRIADO SEM SINGLETON" style="text;html=1;strokeColor=default;fillColor=none;align=left;verticalAlign=top;whiteSpace=wrap;rounded=0;fontStyle=0" vertex="1" parent="1">
                    <mxGeometry x="575" y="-756" width="216" height="118" as="geometry"/>
                </mxCell>
                <mxCell id="2" value="&lt;font style=&quot;font-size: 16px&quot;&gt;ARRAY &lt;/font&gt;&lt;br&gt;- CRIADO SEM SINGLETON" style="text;html=1;strokeColor=default;fillColor=none;align=left;verticalAlign=top;whiteSpace=wrap;rounded=0;fontStyle=0" vertex="1" parent="1">
                    <mxGeometry x="77" y="-754" width="216" height="118" as="geometry"/>
                </mxCell>
                <mxCell id="3" value="SINGLETON : PORQUE USAR" style="text;strokeColor=none;fillColor=none;html=1;fontSize=24;fontStyle=1;verticalAlign=middle;align=center;" vertex="1" parent="1">
                    <mxGeometry x="273" y="-844" width="104" height="40" as="geometry"/>
                </mxCell>
                <mxCell id="4" value="SE NAO USAR : VAI CRIAR CADA VEZ QUE CRIAR UMA ESTRUTURA UMA ESTRUTURA DE GUARDAR DIFERENTE" style="text;strokeColor=none;fillColor=none;html=1;fontSize=13;fontStyle=1;verticalAlign=middle;align=center;" vertex="1" parent="1">
                    <mxGeometry x="353" y="-796" width="104" height="40" as="geometry"/>
                </mxCell>
                <mxCell id="5" value="&lt;span style=&quot;font-size: 16px&quot;&gt;categoria_01&lt;/span&gt;" style="text;html=1;strokeColor=#6F0000;fillColor=#a20025;align=left;verticalAlign=top;whiteSpace=wrap;rounded=0;fontStyle=0;fontColor=#ffffff;" vertex="1" parent="1">
                    <mxGeometry x="97" y="-704" width="103" height="45" as="geometry"/>
                </mxCell>
                <mxCell id="6" value="&lt;font style=&quot;font-size: 16px&quot;&gt;OUTRO - ARRAY &lt;/font&gt;&lt;br&gt;- CRIADO SEM SINGLETON" style="text;html=1;strokeColor=default;fillColor=none;align=left;verticalAlign=top;whiteSpace=wrap;rounded=0;fontStyle=0" vertex="1" parent="1">
                    <mxGeometry x="320" y="-754" width="216" height="118" as="geometry"/>
                </mxCell>
                <mxCell id="7" value="&lt;span style=&quot;font-size: 16px&quot;&gt;categoria_02&lt;/span&gt;" style="text;html=1;strokeColor=#6F0000;fillColor=#a20025;align=left;verticalAlign=top;whiteSpace=wrap;rounded=0;fontStyle=0;fontColor=#ffffff;" vertex="1" parent="1">
                    <mxGeometry x="340" y="-702" width="103" height="45" as="geometry"/>
                </mxCell>
                <mxCell id="8" value="&lt;span style=&quot;font-size: 16px&quot;&gt;categoria_03&lt;/span&gt;" style="text;html=1;strokeColor=#6F0000;fillColor=#a20025;align=left;verticalAlign=top;whiteSpace=wrap;rounded=0;fontStyle=0;fontColor=#ffffff;" vertex="1" parent="1">
                    <mxGeometry x="595" y="-704" width="103" height="45" as="geometry"/>
                </mxCell>
                <mxCell id="10" value="SE É ESTRUTURA PARA GUARDAR&amp;nbsp;TEM QUE SER UNICA&lt;br style=&quot;font-size: 17px&quot;&gt;ENTAO: O CORRETO É CRIAR COM PADRAO SINGLETON&lt;br style=&quot;font-size: 17px&quot;&gt;FICANDO ASSIM :" style="text;strokeColor=none;fillColor=none;html=1;fontSize=17;fontStyle=1;verticalAlign=middle;align=center;fontColor=#FFFF00;" vertex="1" parent="1">
                    <mxGeometry x="369" y="-593" width="104" height="40" as="geometry"/>
                </mxCell>
                <mxCell id="11" value="OK" style="text;strokeColor=none;fillColor=none;html=1;fontSize=24;fontStyle=1;verticalAlign=middle;align=center;" vertex="1" parent="1">
                    <mxGeometry x="177" y="-556" width="104" height="40" as="geometry"/>
                </mxCell>
                <mxCell id="12" value="&lt;span style=&quot;font-size: 16px&quot;&gt;categoria_01&lt;/span&gt;" style="text;html=1;strokeColor=#001DBC;fillColor=#0050ef;align=left;verticalAlign=top;whiteSpace=wrap;rounded=0;fontStyle=0;fontColor=#ffffff;" vertex="1" parent="1">
                    <mxGeometry x="88" y="-440" width="103" height="45" as="geometry"/>
                </mxCell>
                <mxCell id="15" value="&lt;span style=&quot;font-size: 16px&quot;&gt;categoria_02&lt;/span&gt;" style="text;html=1;strokeColor=#001DBC;fillColor=#0050ef;align=left;verticalAlign=top;whiteSpace=wrap;rounded=0;fontStyle=0;fontColor=#ffffff;" vertex="1" parent="1">
                    <mxGeometry x="222" y="-442" width="103" height="45" as="geometry"/>
                </mxCell>
                <mxCell id="16" value="&lt;span style=&quot;font-size: 16px&quot;&gt;categoria_04&lt;/span&gt;" style="text;html=1;strokeColor=#001DBC;fillColor=#0050ef;align=left;verticalAlign=top;whiteSpace=wrap;rounded=0;fontStyle=0;fontColor=#ffffff;" vertex="1" parent="1">
                    <mxGeometry x="511" y="-444" width="103" height="45" as="geometry"/>
                </mxCell>
                <mxCell id="17" value="&lt;span style=&quot;font-size: 16px&quot;&gt;categoria_03&lt;/span&gt;" style="text;html=1;strokeColor=#001DBC;fillColor=#0050ef;align=left;verticalAlign=top;whiteSpace=wrap;rounded=0;fontStyle=0;fontColor=#ffffff;" vertex="1" parent="1">
                    <mxGeometry x="365" y="-442" width="103" height="45" as="geometry"/>
                </mxCell>
                <mxCell id="18" value="&lt;span style=&quot;font-size: 16px&quot;&gt;categoria_05&lt;/span&gt;" style="text;html=1;strokeColor=#001DBC;fillColor=#0050ef;align=left;verticalAlign=top;whiteSpace=wrap;rounded=0;fontStyle=0;fontColor=#ffffff;" vertex="1" parent="1">
                    <mxGeometry x="655" y="-448" width="103" height="45" as="geometry"/>
                </mxCell>
                <mxCell id="19" value="SINGLETON :" style="text;strokeColor=none;fillColor=none;html=1;fontSize=24;fontStyle=1;verticalAlign=middle;align=center;" vertex="1" parent="1">
                    <mxGeometry x="381" y="-539" width="104" height="40" as="geometry"/>
                </mxCell>
            </root>
        </mxGraphModel>
    </diagram>
</mxfile>